<svg xmlns="http://www.w3.org/2000/svg" viewBox="0 0 100 100" fill="none">
  <g fill="#0b0b0c" stroke="#f05b3e" stroke-width="6" stroke-linejoin="round" stroke-linecap="round">
    <ellipse cx="45" cy="21" rx="4" ry="9" transform="rotate(-16 45 21)"/>
    <ellipse cx="59" cy="21" rx="4" ry="9" transform="rotate(16 59 21)"/>
    <path d="M30 55A20 22 0 0 1 70 55V70Q70 76 64 76H36Q30 76 30 70Z"/>
    <path d="M5 68A16 18 0 0 1 37 68V80Q37 86 31 86H11Q5 86 5 80Z"/>
    <path d="M64 64A16 18 0 0 1 96 64V78Q96 84 90 84H70Q64 84 64 78Z"/>
    <path d="M32 84A26 21 0 0 1 84 84V91Q84 97 78 97H38Q32 97 32 91Z"/>
  </g>
  <g fill="#ffd0c7">
    <rect x="42" y="45" width="6" height="11" rx="3"/><rect x="53" y="45" width="6" height="11" rx="3"/>
    <rect x="13" y="61" width="5.5" height="10" rx="2.75"/><rect x="24" y="61" width="5.5" height="10" rx="2.75"/>
    <rect x="72" y="57" width="5.5" height="10" rx="2.75"/><rect x="83" y="57" width="5.5" height="10" rx="2.75"/>
    <rect x="49" y="77" width="6" height="9" rx="3"/><rect x="63" y="77" width="6" height="9" rx="3"/>
  </g>
</svg>
